<svg xmlns="http://www.w3.org/2000/svg" viewBox="0 0 256 256" fill="none">
  <defs>
    <linearGradient id="g" x1="0" y1="0" x2="1" y2="1">
      <stop offset="0" stop-color="#56ccf2" />
      <stop offset="1" stop-color="#ff8a3d" />
    </linearGradient>
  </defs>
  <rect x="24" y="24" width="208" height="208" rx="24" fill="#0f1419" stroke="url(#g)" stroke-width="8"/>
  <rect x="60" y="60" width="136" height="136" rx="12" fill="#111827" stroke="#22303c" stroke-width="4"/>
  <g stroke="#6fcf97" stroke-width="6" stroke-linecap="round">
    <path d="M88 128h80"/>
    <path d="M128 88v80"/>
  </g>
  <g fill="#f5a9b8">
    <circle cx="88" cy="88" r="6"/>
    <circle cx="168" cy="88" r="6"/>
    <circle cx="88" cy="168" r="6"/>
    <circle cx="168" cy="168" r="6"/>
  </g>
  <g stroke="#56ccf2" stroke-width="6" stroke-linecap="round">
    <path d="M60 96H40M60 160H40M196 96h20M196 160h20"/>
    <path d="M96 60V40M160 60V40M96 196v20M160 196v20"/>
  </g>
  <rect x="104" y="104" width="48" height="48" rx="8" fill="#0f1419" stroke="#22303c" stroke-width="4"/>
  <text x="128" y="136" font-size="20" font-family="system-ui, Arial, sans-serif" text-anchor="middle" fill="#e6edf3">AI</text>
  Sorry, your browser does not support inline SVG.
</svg>

